#!OML:ASF H:\LiuWeirdWalks\Patient Classification 1\Patient 1\Session 1\male.ASF
:FULLY-SPECIFIED
:DEGREES
294
root 0.0762577 18.0085 -22.3231 2.79046 5.30798 0.937278
lowerback 7.86965 0.440859 -4.34394
upperback 0.398926 0.297481 2.31479
thorax -4.03961 0.249138 4.83205
lowerneck -18.968 -0.832749 3.1407
upperneck 14.653 -1.34267 -3.4577
head 7.57746 -0.805163 -1.81553
rclavicle 3.08116e-015 -2.46493e-014
rhumerus -27.8576 -4.50842 -80.1252
rradius 29.9974
rwrist -8.42013
rhand -16.3515 -2.35677
rfingers 7.12502
rthumb 9.86101 -32.1058
lclavicle 3.08116e-015 -2.46493e-014
lhumerus -36.6893 7.89391 83.7506
lradius 24.2972
lwrist 0.585414
lhand -7.63885 2.53055
lfingers 7.12502
lthumb 18.2563 31.6938
rfemur -11.3002 -7.60183 14.8386
rtibia 63.5022
rfoot 14.22 -25.8959
rtoes 1.34894
lfemur -18.8475 -0.22678 -20.5614
ltibia 25.0907
lfoot -7.08213 10.5684
ltoes -10.4616
295
root 0.113321 18.0133 -22.217 2.74861 5.36323 1.32452
lowerback 8.00985 0.392813 -4.79127
upperback 0.41566 0.183367 2.21734
thorax -4.08906 0.200901 4.99827
lowerneck -19.4314 -0.0483088 4.89502
upperneck 14.678 -0.460202 -5.13685
head 7.68727 -0.456052 -2.56368
rclavicle 4.96962e-015 1.27222e-014
rhumerus -27.749 -4.29296 -80.3074
rradius 30.4826
rwrist -8.68481
rhand -16.5365 -2.29151
rfingers 7.12502
rthumb 9.68252 -32.049
lclavicle 4.96962e-015 1.27222e-014
lhumerus -36.5942 7.2029 83.9783
lradius 24.5832
lwrist 0.792817
lhand -7.72995 2.39485
lfingers 7.12502
lthumb 18.1687 31.5663
rfemur -12.7055 -8.19587 14.4216
rtibia 65.3106
rfoot 13.0855 -26.3721
rtoes 2.14669
lfemur -18.2188 -0.205055 -21.1199
ltibia 24.8213
lfoot -7.18331 10.5629
ltoes -10.0328
296
root 0.14912 18.0174 -22.1111 2.71793 5.42609 1.60305
lowerback 8.12009 0.345794 -5.12002
upperback 0.441533 0.0827518 2.14503
thorax -4.11224 0.156511 5.12182
lowerneck -19.7759 0.632583 6.37102
upperneck 14.6126 0.294426 -6.52113
head 7.76984 -0.155858 -3.18413
rclavicle 9.64106e-015 -1.03368e-014
rhumerus -27.6243 -4.0999 -80.4864
rradius 30.9635
rwrist -8.94854
rhand -16.7262 -2.23307
rfingers 7.12502
rthumb 9.49957 -31.9989
lclavicle 9.64106e-015 -1.03368e-014
lhumerus -36.4208 6.59918 84.149
lradius 24.8021
lwrist 0.90391
lhand -7.88835 2.29591
lfingers 7.12502
lthumb 18.0163 31.4815
rfemur -14.0966 -8.77204 14.169
rtibia 66.8971
rfoot 11.6761 -26.7381
rtoes 2.7698
lfemur -17.6596 -0.180965 -21.5504
ltibia 24.6363
lfoot -7.32123 10.5569
ltoes -9.625
297
root 0.18438 18.0212 -22.0052 2.70198 5.48779 1.77186
lowerback 8.20148 0.299567 -5.32782
upperback 0.458213 -0.00381169 2.09942
thorax -4.12968 0.117152 5.20289
lowerneck -19.934 1.07411 7.30533
upperneck 14.4761 0.780221 -7.39004
head 7.7933 0.0384625 -3.57296
rclavicle 1.2921e-014 -6.36111e-015
rhumerus -27.5189 -3.93199 -80.6518
rradius 31.426
rwrist -9.19281
rhand -16.9089 -2.13569
rfingers 7.12502
rthumb 9.3232 -31.9095
lclavicle 1.2921e-014 -6.36111e-015
lhumerus -36.2031 6.07453 84.2672
lradius 24.962
lwrist 0.976515
lhand -8.1129 2.17651
lfingers 7.12502
lthumb 17.8002 31.3818
rfemur -15.4756 -9.30763 14.0796
rtibia 68.244
rfoot 10.1373 -26.9685
rtoes 3.19162
lfemur -17.1715 -0.172974 -21.8525
ltibia 24.5401
lfoot -7.49907 10.5734
ltoes -9.22123
298
root 0.218992 18.0249 -21.8991 2.69782 5.53255 1.82999
lowerback 8.24585 0.255269 -5.42025
upperback 0.477418 -0.0739627 2.08692
thorax -4.12535 0.0833263 5.2509
lowerneck -19.9413 1.24683 7.60525
upperneck 14.2819 0.975103 -7.67447
head 7.74896 0.119007 -3.69182
rclavicle 1.15295e-014 -2.54444e-014
rhumerus -27.4108 -3.76847 -80.799
rradius 31.8637
rwrist -9.4233
rhand -17.0697 -1.99055
rfingers 7.12502
rthumb 9.16805 -31.7713
lclavicle 1.15295e-014 -2.54444e-014
lhumerus -35.9369 5.66051 84.3317
lradius 25.0693
lwrist 0.996961
lhand -8.35273 2.06182
lfingers 7.12502
lthumb 17.5694 31.2879
rfemur -16.8518 -9.77512 14.156
rtibia 69.3427
rfoot 8.61496 -27.0748
rtoes 3.30116
lfemur -16.753 -0.176519 -22.0254
ltibia 24.5351
lfoot -7.71826 10.6152
ltoes -8.82171
299
root 0.253309 18.0282 -21.7921 2.68698 5.55492 1.79969
lowerback 8.26831 0.219202 -5.41386
upperback 0.499499 -0.121832 2.09634
thorax -4.10852 0.0584286 5.26284
lowerneck -19.7916 1.21046 7.44061
upperneck 14.0111 0.943212 -7.52776
head 7.62967 0.110993 -3.61209
rclavicle 2.50469e-014 -2.06736e-014
rhumerus -27.3231 -3.62302 -80.9287
rradius 32.2854
rwrist -9.63121
rhand -17.2143 -1.84209
rfingers 7.12502
rthumb 9.0286 -31.6289
lclavicle 2.50469e-014 -2.06736e-014
lhumerus -35.6387 5.36492 84.3368
lradius 25.1381
lwrist 0.95624
lhand -8.62586 1.91978
lfingers 7.12502
lthumb 17.3066 31.1692
rfemur -18.1882 -10.1653 14.3622
rtibia 70.1932
rfoot 7.20642 -27.1001
rtoes 3.41308
lfemur -16.37 -0.20262 -22.0941
ltibia 24.6072
lfoot -7.97161 10.6977
ltoes -8.44399
300
root 0.286707 18.0304 -21.6856 2.68508 5.56333 1.70666
lowerback 8.26609 0.185136 -5.34556
upperback 0.524122 -0.159014 2.12772
thorax -4.07662 0.0373441 5.26107
lowerneck -19.6624 1.16183 7.24729
upperneck 13.7698 0.89911 -7.36239
head 7.52287 0.09715 -3.52392
rclavicle 2.18663e-014 1.98785e-015
rhumerus -27.2254 -3.4839 -81.0415
rradius 32.6707
rwrist -9.81993
rhand -17.3348 -1.68512
rfingers 7.12502
rthumb 8.91228 -31.4769
lclavicle 2.18663e-014 1.98785e-015
lhumerus -35.3101 5.21308 84.286
lradius 25.1835
lwrist 0.867456
lhand -8.90072 1.75359
lfingers 7.12502
lthumb 17.042 31.0261
rfemur -19.5031 -10.4828 14.6721
rtibia 70.8105
rfoot 5.85301 -27.0362
rtoes 3.25774
lfemur -16.0361 -0.262948 -22.086
ltibia 24.7401
lfoot -8.24105 10.819
ltoes -8.0445
301
root 0.31977 18.031 -21.5787 2.67576 5.56363 1.62039
lowerback 8.25772 0.15451 -5.28062
upperback 0.555493 -0.191507 2.1607
thorax -4.03486 0.018198 5.26221
lowerneck -19.5272 1.13003 7.09434
upperneck 13.522 0.874235 -7.23842
head 7.4152 0.0907435 -3.4543
rclavicle -3.47873e-015 -2.3059e-014
rhumerus -27.1227 -3.35202 -81.1406
rradius 33.0243
rwrist -9.99892
rhand -17.4565 -1.56859
rfingers 7.12502
rthumb 8.79481 -31.3653
lclavicle -3.47873e-015 -2.3059e-014
lhumerus -34.9624 5.17931 84.1934
lradius 25.2187
lwrist 0.757179
lhand -9.18896 1.63556
lfingers 7.12502
lthumb 16.7645 30.9318
rfemur -20.7644 -10.754 14.9899
rtibia 71.2052
rfoot 4.5033 -26.8532
rtoes 2.73638
lfemur -15.7103 -0.352095 -22.0828
ltibia 24.9134
lfoot -8.53399 10.9738
ltoes -7.61327
302
root 0.352472 18.0291 -21.4716 2.66557 5.56902 1.58108
lowerback 8.24524 0.126769 -5.25665
upperback 0.596404 -0.22424 2.18099
thorax -3.98075 -0.0010643 5.27317
lowerneck -19.3896 1.09875 6.94947
upperneck 13.2461 0.847809 -7.12052
head 7.29826 0.0834575 -3.38806
rclavicle 1.12313e-014 -1.11319e-014
rhumerus -27.0008 -3.24954 -81.2254
rradius 33.3361
rwrist -10.1188
rhand -17.549 -1.46044
rfingers 7.12502
rthumb 8.70558 -31.2609
lclavicle 1.12313e-014 -1.11319e-014
lhumerus -34.5941 5.23951 84.0675
lradius 25.2652
lwrist 0.675461
lhand -9.49102 1.5872
lfingers 7.12502
lthumb 16.4737 30.9078
rfemur -21.9657 -10.9956 15.2626
rtibia 71.3954
rfoot 3.08007 -26.5608
rtoes 2.0679
lfemur -15.3896 -0.466406 -22.1317
ltibia 25.1134
lfoot -8.84556 11.1466
ltoes -7.17818
303
root 0.384983 18.025 -21.3634 2.64223 5.56881 1.58115
lowerback 8.23785 0.100769 -5.27006
upperback 0.640972 -0.258686 2.1931
thorax -3.92536 -0.0207325 5.29701
lowerneck -19.3071 1.06414 6.79679
upperneck 13.0665 0.819724 -7.00396
head 7.22229 0.0741618 -3.32352
rclavicle 1.46107e-014 -1.11319e-014
rhumerus -26.8762 -3.15794 -81.2991
rradius 33.606
rwrist -10.2097
rhand -17.6207 -1.37117
rfingers 7.12502
rthumb 8.63643 -31.1745
lclavicle 1.46107e-014 -1.11319e-014
lhumerus -34.2242 5.37102 83.9217
lradius 25.3207
lwrist 0.666618
lhand -9.80956 1.63421
lfingers 7.12502
lthumb 16.167 30.98
rfemur -23.0926 -11.1966 15.4969
rtibia 71.3835
rfoot 1.62106 -26.152
rtoes 1.27845
lfemur -15.0504 -0.595206 -22.2249
ltibia 25.3249
lfoot -9.18653 11.3426
ltoes -6.72844
304
root 0.416522 18.0184 -21.2545 2.61411 5.57832 1.61745
lowerback 8.2417 0.0731164 -5.32483
upperback 0.687738 -0.299975 2.19764
thorax -3.8729 -0.0431538 5.33737
lowerneck -19.2621 1.02817 6.6146
upperneck 12.9491 0.79181 -6.85161
head 7.17285 0.0663462 -3.24364
rclavicle 3.47873e-015 2.5842e-014
rhumerus -26.7427 -3.07561 -81.3661
rradius 33.8358
rwrist -10.2508
rhand -17.6593 -1.26947
rfingers 7.12502
rthumb 8.59917 -31.0743
lclavicle 3.47873e-015 2.5842e-014
lhumerus -33.8577 5.53733 83.7671
lradius 25.4055
lwrist 0.753734
lhand -10.1264 1.75256
lfingers 7.12502
lthumb 15.8619 31.1229
rfemur -24.1567 -11.3669 15.7001
rtibia 71.1759
rfoot 0.168175 -25.6577
rtoes 0.428804
lfemur -14.7064 -0.726743 -22.357
ltibia 25.5464
lfoot -9.54772 11.5387
ltoes -6.302
305
root 0.447562 18.0094 -21.1447 2.58103 5.59467 1.68526
lowerback 8.25446 0.0454783 -5.40785
upperback 0.725482 -0.344767 2.19291
thorax -3.83422 -0.0663001 5.38466
lowerneck -19.207 1.00466 6.4772
upperneck 12.8591 0.777491 -6.74032
head 7.13213 0.0636791 -3.18377
rclavicle 6.65929e-015 -2.38542e-014
rhumerus -26.6489 -2.9906 -81.4231
rradius 34.0524
rwrist -10.2591
rhand -17.6829 -1.1808
rfingers 7.12502
rthumb 8.57639 -30.9866
lclavicle 6.65929e-015 -2.38542e-014
lhumerus -33.5207 5.71562 83.6102
lradius 25.5277
lwrist 0.924358
lhand -10.4589 1.91214
lfingers 7.12502
lthumb 15.5417 31.3076
rfemur -25.1565 -11.5014 15.8732
rtibia 70.7747
rfoot -1.22322 -25.1239
rtoes -0.386505
lfemur -14.3559 -0.867082 -22.5253
ltibia 25.7796
lfoot -9.92944 11.7554
ltoes -5.95085
306
root 0.477339 17.9986 -21.0348 2.55551 5.63398 1.76351
lowerback 8.28512 0.0117876 -5.50115
upperback 0.749826 -0.399739 2.18594
thorax -3.81805 -0.093313 5.437
lowerneck -19.1463 0.980693 6.32078
upperneck 12.778 0.764128 -6.60474
head 7.09333 0.0628875 -3.11279
rclavicle -1.09332e-015 2.54444e-014
rhumerus -26.5864 -2.88475 -81.4776
rradius 34.2654
rwrist -10.2777
rhand -17.6873 -1.07339
rfingers 7.12502
rthumb 8.57209 -30.8794
lclavicle -1.09332e-015 2.54444e-014
lhumerus -33.2047 5.87844 83.4611
lradius 25.6781
lwrist 1.19606
lhand -10.7781 2.07805
lfingers 7.12502
lthumb 15.2342 31.4971
rfemur -26.1115 -11.6103 16.0467
rtibia 70.1828
rfoot -2.51175 -24.5806
rtoes -1.26979
lfemur -14.0232 -1.00227 -22.7038
ltibia 26.0303
lfoot -10.3246 11.966
ltoes -5.67084
307
root 0.505763 17.9862 -20.9244 2.54418 5.69699 1.84575
lowerback 8.31818 -0.0283305 -5.59783
upperback 0.752481 -0.464137 2.17716
thorax -3.82446 -0.123668 5.49073
lowerneck -19.0372 0.962073 6.1754
upperneck 12.7008 0.758396 -6.47258
head 7.04836 0.0667239 -3.04373
rclavicle -3.47873e-015 -7.15625e-015
rhumerus -26.5786 -2.75486 -81.5291
rradius 34.4829
rwrist -10.2952
rhand -17.6743 -0.97622
rfingers 7.12502
rthumb 8.58464 -30.7817
lclavicle -3.47873e-015 -7.15625e-015
lhumerus -32.9235 6.01679 83.3198
lradius 25.8482
lwrist 1.52442
lhand -11.1092 2.22938
lfingers 7.12502
lthumb 14.9153 31.6724
rfemur -27.0264 -11.693 16.227
rtibia 69.4065
rfoot -3.70087 -24.0658
rtoes -2.17378
lfemur -13.7134 -1.12972 -22.8834
ltibia 26.2949
lfoot -10.7286 12.1683
ltoes -5.50338
